<svg version="1.1" x="0" y="0" width="100%" height="100%" viewBox="0,0,1.5218018819487835,0.5805613529438788" xmlns="http://www.w3.org/2000/svg" xmlns:xlink="http://www.w3.org/1999/xlink">
  <defs>
    <linearGradient id="linear" x1="50%" y1="0%" x2="50%" y2="100%">
      <stop offset="0%" style="stop-color:#39b1d1;stop-opacity:1;"/>
      <stop offset="100%" style="stop-color:#2788a2;stop-opacity:1;"/>
    </linearGradient>
  </defs>
  <g transform="translate(0.0042531967248635805 0.0042531967248635805)">
    <path d="M 0.7869136540195093 0.04195069702957112 Q 0.911003884076432 -0.03813699729961011 1.0350941141333547 0.03813699729961011 Q 1.2318225276382317 -0.047671246624512637 1.3377532118331659 0.07627399459922023 Q 1.5102688975220584 0.09534249324902527 1.4588168509130903 0.2097534851478556 Q 1.6343591275789808 0.3050959783968809 1.3014341201091884 0.4004384716459062 Q 1.3014341201091884 0.5339179621945416 0.9987750224093772 0.49578096489493145 Q 0.7869136540195093 0.6387947047684693 0.5811054675836376 0.5148494635447365 Q 0.39345682700975465 0.5720549594941516 0.20580818643587168 0.4767124662451263 Q -0.015132954884990564 0.48052616597508735 0.06658500149395849 0.34323297569649097 Q -0.09079772930994338 0.25742473177236824 0.13317000298791698 0.2002192358229531 Q 0.18159545861988677 0.034323297569649094 0.48425455631969805 0.07246029486925921 Q 0.6355841051696037 -0.019068498649805057 0.7869136540195093 0.04195069702957112  Z M 0.7869136540195093 0.04195069702957112 Q 0.7748072901115168 0.04957809648949314 0.7627009262035245 0.06101919567937617 M 1.0350941141333547 0.03813699729961011 Q 1.0229877502253621 0.043857546894551624 1.0108813863173696 0.053391796219454155 M 1.3377532118331659 0.07627399459922023 Q 1.343806393787162 0.08199454419416174 1.3498595757411582 0.09152879351906426 M 1.4588168509130903 0.2097534851478556 Q 1.4376307140741036 0.23263568352762168 1.4103913952811207 0.23644938325758266 M 1.1924768449372565 0.3050959783968809 Q 1.3014341201091884 0.33369872637158843 1.3014341201091884 0.4004384716459062 M 0.9987750224093772 0.49578096489493145 Q 1.0139079772943678 0.4862467155700289 1.0320675231563563 0.4614576673252824 M 0.5811054675836376 0.5148494635447365 Q 0.565972512698647 0.5072220640848144 0.5508395578136565 0.49578096489493145 M 0.20580818643587168 0.4767124662451263 Q 0.22396773229786035 0.4767124662451263 0.24212727815984902 0.4728987665151653 M 0.16948909471189433 0.358487774616335 Q 0.10895727517193206 0.36230147434629606 0.06658500149395849 0.34323297569649097 M 0.13317000298791698 0.2002192358229531 Q 0.1316567074994179 0.20403293555291407 0.13014341201091884 0.2097534851478556 M 0.48425455631969805 0.07246029486925921 Q 0.5145204660896792 0.08008769432918122 0.5387331939056641 0.09152879351906426 " style="stroke:#46aac5;stroke-width:0.008506393449727161;stroke-opacity:1;stroke-linecap:round;stroke-linejoin:round;fill:url(#linear);fill-rule:nonzero;"/>
    <circle cx="0.4161562593372405" cy="0.543452211519444" r="0.05720549594941517" style="stroke:#46aac5;stroke-width:0.008506393449727161;stroke-opacity:1;stroke-linecap:round;stroke-linejoin:round;fill:url(#linear);fill-rule:nonzero;"/>
    <circle cx="0.20807812966862027" cy="0.7007673253803357" r="0.028602747974707583" style="stroke:#46aac5;stroke-width:0.008506393449727161;stroke-opacity:1;stroke-linecap:round;stroke-linejoin:round;fill:url(#linear);fill-rule:nonzero;"/>
    <circle cx="0" cy="0.8580824392412274" r="0.014301373987353792" style="stroke:#46aac5;stroke-width:0.008506393449727161;stroke-opacity:1;stroke-linecap:round;stroke-linejoin:round;fill:url(#linear);fill-rule:nonzero;"/>
  </g>
</svg>