<svg version="1.1" x="0" y="0" width="100%" height="100%" viewBox="0,0,1.0544405493377156,0.40156826817529706" xmlns="http://www.w3.org/2000/svg" xmlns:xlink="http://www.w3.org/1999/xlink">
  <defs>
    <linearGradient id="linear" x1="50%" y1="0%" x2="50%" y2="100%">
      <stop offset="0%" style="stop-color:#9f9f9f;stop-opacity:1;"/>
      <stop offset="100%" style="stop-color:#9f9f9f;stop-opacity:1;"/>
    </linearGradient>
  </defs>
  <g transform="translate(0.0042531967248635805 0.0042531967248635805)">
    <path d="M 0 0.17687784362650646 Q 0 0.03930618747255699 0.2091868311775977 0.03930618747255699 Q 0.2614835389719971 0.03930618747255699 0.31378024676639654 0.058959281208835486 Q 0.4183736623551954 0 0.5229670779439942 0 Q 0.6275604935327931 0 0.7321539091215918 0.058959281208835486 Q 0.7844506169159913 0.03930618747255699 0.8367473247103908 0.03930618747255699 Q 1.0459341558879884 0.03930618747255699 1.0459341558879884 0.17687784362650646 Q 1.0459341558879884 0.31444949978045594 0.8367473247103908 0.31444949978045594 Q 0.8105989708131911 0.31444949978045594 0.7844506169159913 0.30462295291231667 Q 0.7635319337982316 0.3852006372310585 0.5752637857383937 0.3930618747255699 Q 0.6903165428860724 0.35375568725301293 0.6798572013271925 0.32624135602222304 Q 0.6275604935327931 0.35375568725301293 0.5229670779439942 0.35375568725301293 Q 0.4183736623551954 0.35375568725301293 0.31378024676639654 0.29479640604417745 Q 0.2614835389719971 0.31444949978045594 0.2091868311775977 0.31444949978045594 Q 0 0.31444949978045594 0 0.17687784362650646  Z " style="stroke:#9f9f9f;stroke-width:0.008506393449727161;stroke-opacity:1;stroke-linecap:round;stroke-linejoin:round;fill:url(#linear);fill-rule:evenodd;"/>
  </g>
</svg>